<?xml version="1.0" encoding="iso-8859-1"?>
<!-- Generator: Adobe Illustrator 19.0.0, SVG Export Plug-In . SVG Version: 6.00 Build 0)  -->
<svg version="1.1" id="Layer_1" xmlns="http://www.w3.org/2000/svg" xmlns:xlink="http://www.w3.org/1999/xlink" x="0px" y="0px"
	 viewBox="0 0 503.607 503.607" style="enable-background:new 0 0 503.607 503.607;" xml:space="preserve">
<g>
	<g>
		<path d="M486.82,12.59H335.738c-9.258,0-16.787,7.529-16.787,16.787v33.574c0,9.258,7.529,16.787,16.787,16.787h8.393v134.295
			c0,64.797-52.711,117.508-117.508,117.508H67.148v-8.393c0-9.258-7.529-16.787-16.787-16.787H16.787
			C7.529,306.361,0,313.89,0,323.148v151.082c0,9.258,7.529,16.787,16.787,16.787h33.574c9.258,0,16.787-7.529,16.787-16.787v-8.393
			h159.475c138.844,0,251.803-112.959,251.803-251.803V79.738h8.393c9.258,0,16.787-7.529,16.787-16.787V29.377
			C503.607,20.119,496.078,12.59,486.82,12.59z M50.369,423.911c0-0.017-0.008-0.025-0.008-0.042v33.574
			c0,0.017,0.008,0.034,0.008,0.05v16.737H16.787V323.148h33.574v16.778v0.008v83.934c0-0.017,0.008-0.025,0.008-0.042V423.911z
			 M159.475,432.262H67.148v-16.787h92.328c4.633,0,8.393,3.752,8.393,8.393C167.869,428.51,164.109,432.262,159.475,432.262z
			 M261.531,429.476c-11.474,1.855-23.216,2.787-34.908,2.787h-25.18c-4.642,0-8.393-3.752-8.393-8.393
			c0-4.642,3.752-8.393,8.393-8.393h25.18c10.794,0,21.647-0.873,32.239-2.577c4.574-0.73,8.88,2.384,9.619,6.95
			C269.22,424.423,266.114,428.737,261.531,429.476z M375.027,373.903c-15.645,14.529-33.263,26.674-52.375,36.075
			c-1.192,0.579-2.451,0.856-3.693,0.856c-3.097,0-6.077-1.721-7.537-4.684c-2.048-4.155-0.336-9.191,3.827-11.239
			c17.635-8.679,33.909-19.884,48.346-33.305c3.391-3.156,8.704-2.963,11.86,0.436C378.611,365.434,378.418,370.747,375.027,373.903
			z M430.223,292.604c-8.595,22.192-20.715,42.748-36.041,61.104c-1.662,1.989-4.046,3.013-6.446,3.013
			c-1.897,0-3.802-0.638-5.38-1.947c-3.559-2.971-4.029-8.268-1.058-11.826c14.143-16.946,25.34-35.924,33.272-56.404
			c1.679-4.323,6.53-6.463,10.861-4.801C429.753,283.421,431.901,288.281,430.223,292.604z M444.852,214.033
			c0,8.738-0.52,17.542-1.57,26.179c-0.512,4.264-4.13,7.395-8.318,7.395c-0.336,0-0.671-0.017-1.007-0.059
			c-4.608-0.554-7.89-4.734-7.336-9.334c0.957-7.974,1.444-16.115,1.444-24.181v-16.787c0-4.642,3.76-8.393,8.393-8.393
			s8.393,3.752,8.393,8.393V214.033z M436.459,172.066c-4.633,0-8.393-3.76-8.393-8.393s3.76-8.393,8.393-8.393
			s8.393,3.76,8.393,8.393S441.092,172.066,436.459,172.066z M444.852,130.098c0,4.642-3.76,8.393-8.393,8.393
			s-8.393-3.752-8.393-8.393v-25.18c0-4.642,3.76-8.393,8.393-8.393s8.393,3.752,8.393,8.393V130.098z M486.82,62.951h-16.779
			h-0.008H352.525c-0.017,0-0.025,0.008-0.034,0.008h-16.753V29.377H486.82V62.951z"/>
	</g>
</g>
<g>
</g>
<g>
</g>
<g>
</g>
<g>
</g>
<g>
</g>
<g>
</g>
<g>
</g>
<g>
</g>
<g>
</g>
<g>
</g>
<g>
</g>
<g>
</g>
<g>
</g>
<g>
</g>
<g>
</g>
</svg>
